<svg width="34" height="63" viewBox="0 0 34 63" fill="none" xmlns="http://www.w3.org/2000/svg">
<path fill-rule="evenodd" clip-rule="evenodd" d="M16.8556 2C16.8556 2 1.93026 13.9403 1.03474 26.1791C0.139215 38.4179 16.8556 62 16.8556 62C16.8556 62 32.975 35.1343 32.975 26.1791C32.975 19.8825 26.4817 18.1607 21.5886 16.8633C19.5226 16.3155 17.7418 15.8433 16.8556 15.1343C13.8706 12.7463 16.8556 2 16.8556 2ZM23.0896 29.4627C23.0896 33.0896 20.1493 36.0299 16.5224 36.0299C12.8954 36.0299 9.95522 33.0896 9.95522 29.4627C9.95522 25.8357 12.8954 22.8955 16.5224 22.8955C20.1493 22.8955 23.0896 25.8357 23.0896 29.4627Z" fill="#00C46A"/>
<path d="M1.03474 26.1791L0.536071 26.1426L1.03474 26.1791ZM16.8556 2L17.3374 2.13382L17.7515 0.642982L16.5433 1.60957L16.8556 2ZM16.8556 62L16.4477 62.2891L16.8905 62.9137L17.2844 62.2572L16.8556 62ZM21.5886 16.8633L21.7168 16.38L21.7168 16.38L21.5886 16.8633ZM16.8556 15.1343L17.168 14.7439L17.168 14.7439L16.8556 15.1343ZM1.5334 26.2156C1.96896 20.263 5.83283 14.3221 9.66174 9.8241C11.5675 7.58525 13.4467 5.72452 14.8495 4.42351C15.5507 3.77328 16.1321 3.26354 16.5375 2.91701C16.7401 2.74376 16.8987 2.61136 17.0061 2.52264C17.0599 2.47828 17.1008 2.44485 17.1281 2.42269C17.1417 2.41162 17.1519 2.40336 17.1586 2.39797C17.162 2.39527 17.1644 2.39329 17.166 2.39204C17.1668 2.39141 17.1673 2.39096 17.1677 2.39069C17.1678 2.39056 17.1679 2.39049 17.168 2.39043C17.168 2.39041 17.168 2.39043 16.8556 2C16.5433 1.60957 16.5431 1.60968 16.5429 1.60985C16.5428 1.60996 16.5425 1.61017 16.5422 1.6104C16.5417 1.61086 16.5409 1.6115 16.5398 1.61232C16.5378 1.61397 16.5348 1.61634 16.531 1.61943C16.5233 1.62561 16.5121 1.63467 16.4975 1.64656C16.4682 1.67033 16.4253 1.70544 16.3694 1.75153C16.2578 1.84369 16.0949 1.97977 15.8877 2.15692C15.4733 2.51118 14.8817 3.02989 14.1696 3.69029C12.7459 5.01056 10.8378 6.89982 8.90027 9.1759C5.04261 13.7077 0.996041 19.8564 0.536071 26.1426L1.5334 26.2156ZM16.8556 62C17.2635 61.7108 17.2635 61.7108 17.2634 61.7107C17.2633 61.7105 17.2632 61.7103 17.2629 61.71C17.2625 61.7093 17.2618 61.7083 17.2608 61.707C17.2589 61.7043 17.256 61.7001 17.252 61.6946C17.2442 61.6835 17.2325 61.6668 17.2169 61.6446C17.1857 61.6002 17.1392 61.5339 17.0786 61.4467C16.9573 61.2722 16.7791 61.0143 16.5524 60.6814C16.099 60.0155 15.4517 59.0499 14.6776 57.8526C13.1289 55.4574 11.074 52.138 9.04789 48.4389C7.02085 44.7382 5.02787 40.6671 3.59841 36.7673C2.16481 32.8562 1.31736 29.1681 1.5334 26.2156L0.536071 26.1426C0.304349 29.3095 1.21064 33.1587 2.6595 37.1114C4.1125 41.0755 6.13071 45.1947 8.17084 48.9193C10.2119 52.6456 12.2802 55.9866 13.8378 58.3956C14.6168 59.6003 15.2685 60.5726 15.7258 61.2442C15.9545 61.58 16.1345 61.8407 16.2576 62.0177C16.3192 62.1062 16.3665 62.1738 16.3985 62.2194C16.4146 62.2422 16.4268 62.2595 16.435 62.2711C16.4391 62.277 16.4422 62.2814 16.4444 62.2844C16.4454 62.2859 16.4462 62.2871 16.4468 62.2879C16.4471 62.2882 16.4473 62.2886 16.4475 62.2888C16.4476 62.289 16.4477 62.2891 16.8556 62ZM32.475 26.1791C32.475 28.3114 31.504 31.5887 29.9921 35.3684C28.4893 39.1256 26.4823 43.3077 24.4707 47.2191C22.4599 51.1289 20.4486 54.7606 18.9396 57.4152C18.1852 58.7424 17.5567 59.8249 17.1169 60.5753C16.897 60.9505 16.7243 61.2427 16.6067 61.4409C16.5479 61.54 16.5028 61.6157 16.4725 61.6664C16.4574 61.6918 16.4459 61.711 16.4383 61.7237C16.4344 61.7301 16.4316 61.7349 16.4297 61.7381C16.4287 61.7397 16.428 61.7409 16.4275 61.7416C16.4273 61.742 16.4271 61.7423 16.427 61.7425C16.4269 61.7427 16.4269 61.7427 16.8556 62C17.2844 62.2572 17.2845 62.2571 17.2846 62.2569C17.2847 62.2567 17.2849 62.2563 17.2852 62.2559C17.2857 62.255 17.2865 62.2538 17.2875 62.2521C17.2895 62.2488 17.2924 62.2438 17.2964 62.2372C17.3042 62.2241 17.3159 62.2046 17.3312 62.1789C17.3619 62.1274 17.4074 62.0511 17.4667 61.9513C17.5852 61.7516 17.7588 61.4578 17.9796 61.0809C18.4214 60.3272 19.0521 59.2408 19.809 57.9094C21.3224 55.2469 23.3409 51.6024 25.36 47.6764C27.3783 43.752 29.4011 39.5385 30.9206 35.7398C32.4311 31.9635 33.475 28.5245 33.475 26.1791H32.475ZM21.4605 17.3466C23.9232 17.9996 26.6936 18.7383 28.8541 20.072C30.984 21.3868 32.475 23.2488 32.475 26.1791H33.475C33.475 22.8128 31.7195 20.6656 29.3794 19.2211C27.0699 17.7954 24.1471 17.0244 21.7168 16.38L21.4605 17.3466ZM16.5433 15.5248C17.0583 15.9367 17.7953 16.2544 18.6196 16.5329C19.4529 16.8145 20.4322 17.0739 21.4605 17.3466L21.7168 16.38C20.679 16.1048 19.7349 15.8543 18.9398 15.5856C18.1356 15.3138 17.5392 15.0409 17.168 14.7439L16.5433 15.5248ZM16.8556 2C16.3739 1.86618 16.3738 1.86629 16.3738 1.86645C16.3738 1.86656 16.3737 1.86675 16.3737 1.86697C16.3735 1.86739 16.3734 1.86798 16.3732 1.86873C16.3727 1.87024 16.3722 1.87239 16.3714 1.87518C16.3699 1.88076 16.3676 1.8889 16.3647 1.89952C16.3589 1.92077 16.3505 1.95195 16.3397 1.99249C16.3181 2.07357 16.287 2.19208 16.2486 2.34337C16.1718 2.64589 16.0657 3.07974 15.9479 3.60749C15.7125 4.66187 15.4293 6.0963 15.2401 7.60962C15.0515 9.11838 14.9534 10.7285 15.099 12.1264C15.2418 13.4974 15.6317 14.7955 16.5433 15.5248L17.168 14.7439C16.587 14.2791 16.2306 13.3384 16.0936 12.0228C15.9594 10.7342 16.0478 9.20998 16.2324 7.73366C16.4163 6.26191 16.6928 4.86052 16.9238 3.82534C17.0393 3.30832 17.143 2.88396 17.2178 2.58947C17.2552 2.44225 17.2853 2.32755 17.306 2.25004C17.3163 2.21129 17.3243 2.18184 17.3296 2.16228C17.3323 2.15249 17.3343 2.14518 17.3356 2.14042C17.3362 2.13803 17.3367 2.13629 17.337 2.13518C17.3372 2.13463 17.3373 2.13424 17.3373 2.13402C17.3374 2.1339 17.3374 2.13385 17.3374 2.1338C17.3374 2.13379 17.3374 2.13382 16.8556 2ZM16.5224 36.5299C20.4255 36.5299 23.5896 33.3658 23.5896 29.4627H22.5896C22.5896 32.8135 19.8732 35.5299 16.5224 35.5299V36.5299ZM9.45522 29.4627C9.45522 33.3658 12.6193 36.5299 16.5224 36.5299V35.5299C13.1716 35.5299 10.4552 32.8135 10.4552 29.4627H9.45522ZM16.5224 22.3955C12.6193 22.3955 9.45522 25.5596 9.45522 29.4627H10.4552C10.4552 26.1119 13.1716 23.3955 16.5224 23.3955V22.3955ZM23.5896 29.4627C23.5896 25.5596 20.4255 22.3955 16.5224 22.3955V23.3955C19.8732 23.3955 22.5896 26.1119 22.5896 29.4627H23.5896Z" fill="#22C55E"/>
</svg>
